<svg xmlns="http://www.w3.org/2000/svg" viewBox="0 0 400 300" width="400" height="300"><rect width="400" height="300" fill="#f1e6d6"/><circle cx="200" cy="150" r="118" fill="#ffffff" stroke="#4a2c1d" stroke-width="5"/><circle cx="200" cy="150" r="88" fill="#e8c9a1" stroke="#4a2c1d" stroke-width="5"/><path d="M200 190 C150 155 160 115 185 118 C195 119 200 128 200 134 C200 128 205 119 215 118 C240 115 250 155 200 190Z" fill="#ffffff"/><path d="M318 150h30" stroke="#4a2c1d" stroke-width="16" stroke-linecap="round"/><g transform="translate(70 60) rotate(30)"><ellipse rx="16" ry="11" fill="#5a3423"/><path d="M-13 0 q13 -6 26 0" fill="none" stroke="#f1e6d6" stroke-width="3"/></g><g transform="translate(330 250) rotate(-25)"><ellipse rx="16" ry="11" fill="#5a3423"/><path d="M-13 0 q13 -6 26 0" fill="none" stroke="#f1e6d6" stroke-width="3"/></g><g transform="translate(60 240) rotate(60)"><ellipse rx="16" ry="11" fill="#5a3423"/><path d="M-13 0 q13 -6 26 0" fill="none" stroke="#f1e6d6" stroke-width="3"/></g></svg>
